<svg width="447" height="145.99999999999997" xmlns="http://www.w3.org/2000/svg" fill="none">

 <g>
  <title>Layer 1</title>
  <path id="svg_1" fill="#4E351C" d="m22.82906,96.55866l0,-0.8l1.2,-0.32c1.06667,-0.32 1.78667,-0.8 2.16,-1.44c0.42667,-0.64 0.64,-1.4667 0.64,-2.48l0,-25.04c0,-1.1733 -0.21333,-2.0267 -0.64,-2.56c-0.37333,-0.5867 -1.09333,-0.9867 -2.16,-1.2l-1.2,-0.32l0,-0.8l13.76,-4.64l0.8,0.8l0.72,6.88l0,0.64c0.7467,-1.4933 1.7067,-2.8533 2.88,-4.08c1.2267,-1.28 2.56,-2.32 4,-3.12c1.4933,-0.8 2.96,-1.2 4.4,-1.2c2.0267,0 3.5733,0.56 4.64,1.68c1.0667,1.12 1.6,2.5333 1.6,4.24c0,1.8133 -0.5333,3.2267 -1.6,4.24c-1.0133,0.96 -2.24,1.44 -3.68,1.44c-2.24,0 -4.2133,-1.12 -5.92,-3.36l-0.16,-0.16c-0.5333,-0.7467 -1.1467,-1.1467 -1.84,-1.2c-0.6933,-0.1067 -1.3333,0.2133 -1.92,0.96c-0.5333,0.48 -0.9867,1.0667 -1.36,1.76c-0.32,0.64 -0.64,1.3867 -0.96,2.24l0,22.32c0,2.1333 0.9333,3.4667 2.8,4l2.56,0.72l0,0.8l-20.72,0zm54.1425,-39.68c3.4667,0 6.4267,0.72 8.88,2.16c2.4533,1.3867 4.32,3.3067 5.6,5.76c1.3333,2.4 2,5.1467 2,8.24c0,0.5867 -0.0267,1.2 -0.08,1.84c-0.0533,0.5867 -0.16,1.12 -0.32,1.6l-23.84,0c0.0533,5.76 1.0667,9.92 3.04,12.48c2.0267,2.5067 5.0133,3.76 8.96,3.76c2.6667,0 4.8267,-0.4267 6.48,-1.28c1.6533,-0.8533 3.2,-2.1067 4.64,-3.76l0.8,0.72c-1.6533,2.9333 -3.8667,5.2267 -6.64,6.88c-2.72,1.6533 -6,2.48 -9.84,2.48c-3.7867,0 -7.1467,-0.8 -10.08,-2.4c-2.9333,-1.6533 -5.2267,-4 -6.88,-7.04c-1.6533,-3.04 -2.48,-6.6667 -2.48,-10.88c0,-4.3733 0.96,-8.08 2.88,-11.12c1.92,-3.0933 4.3733,-5.44 7.36,-7.04c3.04,-1.6 6.2133,-2.4 9.52,-2.4zm-0.24,1.6c-1.5467,0 -2.88,0.48 -4,1.44c-1.0667,0.9067 -1.92,2.56 -2.56,4.96c-0.5867,2.3467 -0.9067,5.68 -0.96,10l13.68,0c0.5333,-5.8133 0.32,-10 -0.64,-12.56c-0.96,-2.56 -2.8,-3.84 -5.52,-3.84zm20.0856,38.08l0,-0.8l1.44,-0.48c1.0667,-0.3733 1.7867,-0.88 2.16,-1.52c0.3734,-0.64 0.56,-1.4933 0.56,-2.56c0.0534,-3.2 0.08,-6.4267 0.08,-9.68c0,-3.2533 0,-6.5067 0,-9.76l0,-3.2c0,-3.2 0,-6.4 0,-9.6c0,-3.2533 -0.0266,-6.48 -0.08,-9.68c0,-1.0667 -0.16,-1.92 -0.48,-2.56c-0.2666,-0.64 -0.9066,-1.1467 -1.92,-1.52l-1.76,-0.64l0,-0.8l38.7199,0l0.56,13.28l-0.8,0l-4.56,-8.4c-0.533,-1.0133 -1.147,-1.8133 -1.84,-2.4c-0.693,-0.5867 -1.653,-0.88 -2.88,-0.88l-12.8799,0c-0.0533,3.7867 -0.08,7.6533 -0.08,11.6c0,3.9467 0,7.8667 0,11.76l8.3199,0c1.227,0 2.133,-0.2667 2.72,-0.8c0.587,-0.5333 1.147,-1.3067 1.68,-2.32l1.68,-3.04l0.8,0l0,14l-0.8,0l-1.76,-3.04c-0.533,-0.96 -1.093,-1.7333 -1.68,-2.32c-0.533,-0.5867 -1.413,-0.88 -2.64,-0.88l-8.3199,0c0,3.7333 0,7.3067 0,10.72c0,3.36 0.0267,6.6667 0.08,9.92c0,2.08 1.0134,3.44 3.04,4.08l2.4,0.72l0,0.8l-21.76,0zm88.2779,0l0,-0.8l1.2,-0.32c1.066,-0.32 1.786,-0.8 2.16,-1.44c0.426,-0.64 0.64,-1.4667 0.64,-2.48l0,-25.04c0,-1.1733 -0.214,-2.0267 -0.64,-2.56c-0.374,-0.5867 -1.094,-0.9867 -2.16,-1.2l-1.2,-0.32l0,-0.8l13.76,-4.64l0.8,0.8l0.72,6.88l0,0.64c0.746,-1.4933 1.706,-2.8533 2.88,-4.08c1.226,-1.28 2.56,-2.32 4,-3.12c1.493,-0.8 2.96,-1.2 4.4,-1.2c2.026,0 3.573,0.56 4.64,1.68c1.066,1.12 1.6,2.5333 1.6,4.24c0,1.8133 -0.534,3.2267 -1.6,4.24c-1.014,0.96 -2.24,1.44 -3.68,1.44c-2.24,0 -4.214,-1.12 -5.92,-3.36l-0.16,-0.16c-0.534,-0.7467 -1.147,-1.1467 -1.84,-1.2c-0.694,-0.1067 -1.334,0.2133 -1.92,0.96c-0.534,0.48 -0.987,1.0667 -1.36,1.76c-0.32,0.64 -0.64,1.3867 -0.96,2.24l0,22.32c0,2.1333 0.933,3.4667 2.8,4l2.56,0.72l0,0.8l-20.72,0zm35.312,0l0,-0.8l1.12,-0.32c1.867,-0.5333 2.8,-1.84 2.8,-3.92l0,-25.04c0,-1.1733 -0.187,-2.0267 -0.56,-2.56c-0.373,-0.5867 -1.093,-0.9867 -2.16,-1.2l-1.2,-0.32l0,-0.8l13.68,-4.64l0.8,0.8l0.64,4.8c1.867,-1.6533 3.973,-3.0133 6.32,-4.08c2.347,-1.0667 4.667,-1.6 6.96,-1.6c3.52,0 6.213,0.96 8.08,2.88c1.92,1.92 2.88,4.8533 2.88,8.8l0,23.04c0,2.08 1.013,3.3867 3.04,3.92l0.72,0.24l0,0.8l-18.88,0l0,-0.8l1.04,-0.32c1.867,-0.5867 2.8,-1.8933 2.8,-3.92l0,-25.52c0,-3.4133 -1.707,-5.12 -5.12,-5.12c-2.347,0 -4.907,1.1733 -7.68,3.52l0,27.2c0,2.08 0.933,3.3867 2.8,3.92l0.72,0.24l0,0.8l-18.8,0zm83.872,1.2c-3.413,0 -6.08,-0.8533 -8,-2.56c-1.867,-1.7067 -2.8,-4.4267 -2.8,-8.16l0,-27.36l-5.52,0l0,-0.8l1.92,-0.32c1.653,-0.3733 3.067,-0.9067 4.24,-1.6c1.227,-0.6933 2.427,-1.6267 3.6,-2.8l6.56,-7.28l0.8,0l-0.24,11.2l8.96,0l0,1.6l-9.04,0l0,28.8c0,1.8667 0.4,3.28 1.2,4.24c0.853,0.96 1.92,1.44 3.2,1.44c1.12,0 2.107,-0.2667 2.96,-0.8c0.853,-0.5867 1.707,-1.36 2.56,-2.32l0.8,0.8c-1.067,1.8133 -2.533,3.2533 -4.4,4.32c-1.867,1.0667 -4.133,1.6 -6.8,1.6zm27.718,0c-2.08,0 -4,-0.4 -5.76,-1.2c-1.707,-0.8 -3.067,-2.08 -4.08,-3.84c-0.96,-1.8133 -1.414,-4.1867 -1.36,-7.12l0.24,-20.56c0,-1.2267 -0.214,-2.1067 -0.64,-2.64c-0.427,-0.5333 -1.094,-0.9067 -2,-1.12l-0.96,-0.32l0,-0.8l14.32,-2.8l0.8,0.8l-0.4,11.36l0,19.28c0,1.7067 0.48,2.96 1.44,3.76c1.013,0.8 2.266,1.2 3.76,1.2c1.493,0 2.826,-0.2133 4,-0.64c1.173,-0.4267 2.346,-1.0667 3.52,-1.92l0.32,-26.08c0,-1.2267 -0.187,-2.08 -0.56,-2.56c-0.374,-0.5333 -1.067,-0.9067 -2.08,-1.12l-0.8,-0.24l0,-0.8l14,-3.04l0.8,0.8l-0.241,11.36l0,21.68c0,1.1733 0.161,2.08 0.481,2.72c0.32,0.64 1.013,1.1733 2.08,1.6l0.8,0.24l0,0.8l-14,0.8l-0.72,-4.72c-1.76,1.44 -3.68,2.6667 -5.76,3.68c-2.027,0.96 -4.427,1.44 -7.2,1.44zm30.91,-1.2l0,-0.8l1.2,-0.32c1.067,-0.32 1.787,-0.8 2.16,-1.44c0.427,-0.64 0.64,-1.4667 0.64,-2.48l0,-25.04c0,-1.1733 -0.213,-2.0267 -0.64,-2.56c-0.373,-0.5867 -1.093,-0.9867 -2.16,-1.2l-1.2,-0.32l0,-0.8l13.76,-4.64l0.8,0.8l0.72,6.88l0,0.64c0.747,-1.4933 1.707,-2.8533 2.88,-4.08c1.227,-1.28 2.56,-2.32 4,-3.12c1.493,-0.8 2.96,-1.2 4.4,-1.2c2.027,0 3.573,0.56 4.64,1.68c1.067,1.12 1.6,2.5333 1.6,4.24c0,1.8133 -0.533,3.2267 -1.6,4.24c-1.013,0.96 -2.24,1.44 -3.68,1.44c-2.24,0 -4.213,-1.12 -5.92,-3.36l-0.16,-0.16c-0.533,-0.7467 -1.147,-1.1467 -1.84,-1.2c-0.693,-0.1067 -1.333,0.2133 -1.92,0.96c-0.533,0.48 -0.987,1.0667 -1.36,1.76c-0.32,0.64 -0.64,1.3867 -0.96,2.24l0,22.32c0,2.1333 0.933,3.4667 2.8,4l2.56,0.72l0,0.8l-20.72,0zm54.143,-39.68c3.466,0 6.426,0.72 8.88,2.16c2.453,1.3867 4.32,3.3067 5.6,5.76c1.333,2.4 2,5.1467 2,8.24c0,0.5867 -0.027,1.2 -0.08,1.84c-0.054,0.5867 -0.16,1.12 -0.32,1.6l-23.84,0c0.053,5.76 1.066,9.92 3.04,12.48c2.026,2.5067 5.013,3.76 8.96,3.76c2.666,0 4.826,-0.4267 6.48,-1.28c1.653,-0.8533 3.2,-2.1067 4.64,-3.76l0.8,0.72c-1.654,2.9333 -3.867,5.2267 -6.64,6.88c-2.72,1.6533 -6,2.48 -9.84,2.48c-3.787,0 -7.147,-0.8 -10.08,-2.4c-2.934,-1.6533 -5.227,-4 -6.88,-7.04c-1.654,-3.04 -2.48,-6.6667 -2.48,-10.88c0,-4.3733 0.96,-8.08 2.88,-11.12c1.92,-3.0933 4.373,-5.44 7.36,-7.04c3.04,-1.6 6.213,-2.4 9.52,-2.4zm-0.24,1.6c-1.547,0 -2.88,0.48 -4,1.44c-1.067,0.9067 -1.92,2.56 -2.56,4.96c-0.587,2.3467 -0.907,5.68 -0.96,10l13.68,0c0.533,-5.8133 0.32,-10 -0.64,-12.56c-0.96,-2.56 -2.8,-3.84 -5.52,-3.84z"/>
  <path id="svg_2" fill="#A96100" d="m154.18406,97.75866c-2.08,0 -4,-0.4 -5.76,-1.2c-1.707,-0.8 -3.067,-2.08 -4.08,-3.84c-0.96,-1.8133 -1.413,-4.1867 -1.36,-7.12l0.24,-20.56c0,-1.2267 -0.213,-2.1067 -0.64,-2.64c-0.427,-0.5333 -1.093,-0.9067 -2,-1.12l-0.96,-0.32l0,-0.8l14.32,-2.8l0.8,0.8l-0.4,11.36l0,19.28c0,1.7067 0.48,2.96 1.44,3.76c1.013,0.8 2.267,1.2 3.76,1.2c1.493,0 2.827,-0.2133 4,-0.64c1.173,-0.4267 2.347,-1.0667 3.52,-1.92l0.32,-26.08c0,-1.2267 -0.187,-2.08 -0.56,-2.56c-0.373,-0.5333 -1.067,-0.9067 -2.08,-1.12l-0.8,-0.24l0,-0.8l14,-3.04l0.8,0.8l-0.24,11.36l0,21.68c0,1.1733 0.16,2.08 0.48,2.72c0.32,0.64 1.013,1.1733 2.08,1.6l0.8,0.24l0,0.8l-14,0.8l-0.72,-4.72c-1.76,1.44 -3.68,2.6667 -5.76,3.68c-2.027,0.96 -4.427,1.44 -7.2,1.44zm122.073,-45.04c-1.813,0 -3.36,-0.56 -4.64,-1.68c-1.227,-1.1733 -1.84,-2.64 -1.84,-4.4c0,-1.8133 0.613,-3.28 1.84,-4.4c1.28,-1.12 2.827,-1.68 4.64,-1.68c1.813,0 3.333,0.56 4.56,1.68c1.227,1.12 1.84,2.5867 1.84,4.4c0,1.76 -0.613,3.2267 -1.84,4.4c-1.227,1.12 -2.747,1.68 -4.56,1.68zm-9.44,43.84l0,-0.8l1.12,-0.32c1.067,-0.32 1.787,-0.8 2.16,-1.44c0.427,-0.64 0.64,-1.4933 0.64,-2.56l0,-25.04c0,-1.12 -0.213,-1.9467 -0.64,-2.48c-0.373,-0.5867 -1.093,-0.9867 -2.16,-1.2l-1.12,-0.24l0,-0.8l14.64,-4.72l0.8,0.8l-0.24,11.36l0,22.4c0,1.0667 0.187,1.92 0.56,2.56c0.427,0.64 1.147,1.12 2.16,1.44l0.8,0.24l0,0.8l-18.72,0z"/>
  <path id="svg_3" stroke="#A96100" fill="#A96100" d="m171.72906,107.05866c-1,-2 -3.833,-10.6667 -4.5,-14.5l14.13,3.5c-0.1,1.5 0.97,5.3 1.37,6.5l-11,4.5z"/>
  <path id="svg_4" stroke="#A96100" fill="#A96100" d="m172.72906,10.60826c66.8,-25.6364 100.167,9.1645 108,30.5281l-11,4.4223l-2.5,-4.4223l-6.5,-8.5777l-8,-7.5l-12.5,-7.5l-11.5,-4l-22,-1.4223l-13,2l-30,9l-30,8.5l-30,6l-20.5,1.5l-17,-1l-5.5,-1l-0.5,-9.2337c9.6667,4.917 45.7,8.342 112.5,-17.2944z"/>
  <path id="svg_5" stroke="#A96100" fill="#A96100" d="m278.22906,50.13636c-5,2 -8,-2.5 -8.5,-4l11,-5c1,2 2.5,7 -2.5,9z"/>
  <path id="svg_6" stroke="#A96100" d="m60.22906,36.63636c9.4685,4.3319 47.5695,6.5855 113,-16c65.431,-22.58545 88,9.4223 98,28.9223l10,-8.4223"/>
  <path id="svg_7" stroke="#A96100" fill="#A96100" d="m59.72906,44.63636l2.5,-25l-15,10.5l12.5,14.5z"/>
  <path id="svg_8" stroke="#A96100" fill="#A96100" d="m279.95906,134.87966c-66.32,26.854 -100.317,-7.331 -108.54,-28.548l10.425,-4.191l3.109,5.944l7.682,9.861l7.118,6.371l13.625,6.752l12.053,2.78l20.506,0.125l12.961,-2.238l29.831,-9.547l29.839,-9.047l29.885,-6.548l20.469,-1.875l17.016,0.689l5.517,0.899l0.669,9.223c-9.755,-4.739 -45.845,-7.504 -112.165,19.35z"/>
  <path id="svg_10" stroke="#A96100" d="m391.96406,106.79766c-9.546,-4.158 -47.682,-5.714 -112.688,18.064c-65.007,23.779 -88.935,-5.052 -96.95,-23.73l-11.407,5.209"/>
  <path id="svg_11" stroke="#A96100" fill="#A96100" d="m392.31806,98.79006l-2.042,25.0416l14.805,-10.773l-12.763,-14.2686z"/>
 </g>
</svg>